<?xml version="1.0" standalone="no"?>
<!DOCTYPE svg PUBLIC "-//W3C//DTD SVG 20010904//EN"
 "http://www.w3.org/TR/2001/REC-SVG-20010904/DTD/svg10.dtd">
<svg version="1.0" xmlns="http://www.w3.org/2000/svg"
 width="1793.000000pt" height="1793.000000pt" viewBox="0 0 1793.000000 1793.000000"
 preserveAspectRatio="xMidYMid meet">
<metadata>
Created by potrace 1.11, written by Peter Selinger 2001-2013
</metadata>
<g transform="translate(0.000000,1793.000000) scale(0.100000,-0.100000)"
fill="#000000" stroke="none">
<path d="M6698 10318 c-4 -14 -3 -620 2 -791 1 -54 0 -100 -3 -103 -3 -3 -11
5 -18 18 -25 46 -132 147 -191 178 -88 47 -148 61 -284 66 -98 3 -135 0 -200
-16 -265 -67 -414 -254 -468 -585 -14 -88 -16 -388 -2 -445 10 -42 17 -79 18
-87 1 -14 36 -108 55 -148 99 -212 276 -321 535 -331 233 -8 388 55 517 213
24 30 45 52 46 51 2 -2 5 -19 8 -38 3 -19 11 -72 18 -117 l12 -83 47 0 47 0 0
1115 0 1115 -67 0 c-46 0 -69 -4 -72 -12z m-348 -779 c248 -63 345 -256 344
-684 -1 -454 -139 -647 -474 -660 -306 -13 -472 128 -535 455 -14 69 -13 343
1 425 46 270 178 434 379 473 77 16 204 11 285 -9z"/>
<path d="M2727 9684 c-1 -1 -20 -4 -42 -8 -95 -13 -204 -45 -300 -86 l-44 -19
25 -50 c13 -28 24 -55 24 -61 0 -14 2 -13 73 19 142 65 244 87 405 85 96 -1
107 -3 169 -35 97 -49 145 -120 178 -259 3 -14 8 -78 12 -142 l6 -118 -54 -1
c-30 -1 -88 -2 -129 -4 -41 -1 -115 -4 -163 -5 -328 -10 -565 -117 -652 -294
-32 -66 -36 -84 -42 -176 -14 -227 110 -393 337 -447 52 -12 189 -14 261 -3
145 21 224 63 347 187 45 45 82 80 83 75 0 -4 2 -15 4 -25 11 -57 25 -156 27
-185 l2 -33 55 3 56 3 0 550 c0 566 -5 659 -41 755 -74 195 -235 285 -499 279
-53 -2 -96 -4 -98 -5z m494 -817 c3 -58 -1 -211 -6 -240 -39 -224 -171 -365
-386 -412 -82 -17 -239 -12 -301 10 -62 22 -130 83 -158 142 -33 69 -33 206
-1 280 62 141 234 211 566 229 66 4 121 7 122 8 1 0 38 2 82 3 77 1 81 0 82
-20z"/>
<path d="M4380 9673 c-135 -26 -261 -100 -331 -195 l-27 -38 -6 33 c-3 17 -8
59 -11 92 -10 97 -8 95 -76 95 l-59 0 0 -780 0 -780 70 0 c39 0 70 3 71 8 0 4
2 230 4 502 1 272 6 509 9 525 16 74 36 143 50 175 69 155 217 238 436 246
252 8 368 -62 431 -261 9 -30 13 -183 15 -590 2 -302 3 -562 4 -577 0 -28 0
-28 70 -28 l70 0 -1 568 c-1 617 -3 646 -58 766 -57 126 -166 209 -311 240
-84 18 -255 17 -350 -1z"/>
<path d="M7790 9673 c-224 -46 -410 -237 -479 -494 -30 -109 -36 -160 -36
-309 0 -194 18 -296 75 -417 94 -203 228 -307 471 -370 13 -3 90 -7 170 -8
187 -3 269 9 419 66 l75 29 -2 57 c-1 32 -2 61 -2 65 -1 4 -30 -4 -64 -17 -61
-23 -149 -48 -212 -60 -16 -3 -80 -8 -142 -11 -281 -15 -463 76 -561 280 -47
97 -69 182 -78 299 l-6 87 564 0 565 0 -3 101 c-3 124 -11 197 -29 270 -86
334 -372 505 -725 432z m250 -113 c126 -24 224 -104 286 -233 42 -89 70 -227
65 -319 -1 -17 -31 -18 -482 -18 l-480 0 6 53 c25 208 122 382 260 463 92 54
231 76 345 54z"/>
<path d="M9449 9675 c-114 -28 -219 -111 -294 -234 -21 -34 -40 -59 -43 -57
-5 6 -9 57 -16 186 -2 47 -5 86 -5 88 -1 1 -28 2 -61 2 l-60 0 0 -780 0 -781
72 3 71 3 2 480 c1 264 6 500 10 525 26 160 120 317 232 388 92 58 145 65 377
50 l40 -3 12 60 c7 33 11 61 9 63 -2 2 -29 7 -61 11 -93 13 -224 11 -285 -4z"/>
<path d="M10588 9674 c-113 -26 -221 -97 -279 -180 -17 -25 -33 -43 -36 -41
-3 4 -32 177 -33 200 0 4 -27 7 -60 7 l-60 0 0 -780 0 -781 72 3 73 3 2 500
c2 556 6 605 62 730 55 121 156 193 304 216 192 30 343 -24 409 -147 50 -94
51 -117 52 -731 l1 -573 72 0 73 0 0 488 c0 268 3 512 6 542 18 173 86 304
189 364 104 61 292 82 410 45 101 -31 168 -101 199 -211 24 -80 24 -90 25
-680 l1 -548 70 0 70 0 0 53 c2 225 -1 1060 -4 1093 -17 180 -109 331 -240
393 -118 55 -324 65 -457 22 -108 -34 -218 -115 -275 -201 -15 -22 -29 -40
-33 -40 -3 0 -14 18 -24 40 -47 102 -159 183 -294 214 -78 18 -220 18 -295 0z"/>
<path d="M13168 9680 c-275 -43 -497 -307 -536 -635 -9 -77 -9 -273 0 -350 22
-186 99 -343 227 -463 53 -49 179 -114 266 -138 82 -22 324 -27 430 -9 106 19
273 75 277 93 2 8 1 38 0 68 l-4 52 -65 -24 c-37 -14 -96 -32 -132 -40 -36 -9
-75 -18 -86 -21 -42 -10 -282 -12 -331 -2 -265 50 -416 250 -440 582 l-6 77
564 0 565 0 -4 125 c-9 351 -145 581 -394 665 -73 25 -237 35 -331 20z m250
-124 c56 -13 136 -62 180 -110 83 -92 128 -210 139 -368 l6 -88 -483 0 -482 0
7 48 c3 26 9 63 12 81 3 19 16 65 29 102 65 180 176 290 334 331 62 16 199 18
258 4z"/>
<path d="M14761 9674 c-231 -51 -417 -246 -485 -509 -27 -105 -28 -117 -31
-275 -5 -292 58 -481 213 -636 79 -79 209 -146 327 -168 80 -15 331 -16 400
-1 122 25 243 67 260 89 6 7 8 38 7 69 l-4 55 -62 -23 c-58 -22 -140 -45 -211
-60 -16 -4 -91 -8 -165 -10 -211 -6 -319 28 -435 136 -106 99 -166 251 -182
456 l-5 73 564 0 563 0 -1 98 c-2 114 -12 216 -26 252 -5 14 -9 25 -8 25 3 0
-13 60 -19 70 -3 6 -6 12 -6 15 -4 23 -42 90 -81 142 -74 100 -158 159 -274
194 -73 22 -255 27 -339 8z m264 -119 c88 -20 120 -38 185 -104 96 -97 137
-211 152 -416 l3 -40 -484 -3 -483 -2 7 55 c19 156 80 297 165 384 116 118
287 165 455 126z"/>
<path d="M16425 9677 c-118 -30 -209 -101 -294 -226 -28 -41 -52 -73 -52 -70
-3 11 -7 83 -10 164 -1 50 -4 96 -7 103 -3 8 -25 12 -63 12 l-59 0 0 -780 0
-780 73 0 72 0 0 463 c1 479 4 548 30 631 54 174 162 298 301 346 58 20 176
22 289 5 28 -4 47 -5 44 -1 -3 4 0 32 7 63 7 32 12 59 10 60 -19 19 -277 26
-341 10z"/>
<path d="M714 9623 c12 -33 416 -1080 543 -1405 l45 -118 73 0 72 0 78 203
c43 111 106 274 140 362 35 88 90 232 124 320 34 88 86 223 116 300 30 77 74
192 99 255 l44 115 -70 3 c-39 2 -72 1 -75 -1 -4 -5 -44 -106 -92 -237 -16
-41 -76 -199 -134 -350 -155 -407 -222 -585 -252 -680 -15 -47 -33 -101 -40
-120 l-13 -35 -12 45 c-6 25 -17 63 -25 85 -27 80 -127 351 -136 370 -11 25
-349 916 -349 921 0 2 -34 4 -75 4 l-74 0 13 -37z"/>
</g>
</svg>
